<svg id="Capa_1" data-name="Capa 1" xmlns="http://www.w3.org/2000/svg" viewBox="0 0 200 200"><defs><style>.cls-1{fill:#fff;}</style></defs><title>logo</title><path class="cls-1" d="M114.57,17.33c-24.16,0-43.75,22-43.75,49.22,0,22,28.59,62,39.55,76.57a5.09,5.09,0,0,0,8.4,0c11-14.54,39.55-54.59,39.55-76.57C158.32,39.37,138.73,17.33,114.57,17.33Zm-93,84.36a12.59,12.59,0,0,0-7,11.6v97.78c0,4.43,4,7.45,7.62,5.81l47.93-24.55v-91a124.85,124.85,0,0,1-7.37-18.14Zm93,56.14a15.92,15.92,0,0,1-12.68-6.63c-6.83-9.06-14.09-19.38-20.65-30v71.1l66.66,25V121.24c-6.57,10.58-13.82,20.91-20.65,30A16,16,0,0,1,114.57,157.83ZM207,80.29,159,104.83v112.5l48.57-21.85a12.59,12.59,0,0,0,7-11.61V86.09c0-4.42-4-7.44-7.62-5.8Z" transform="translate(-14.57 -17.33)"/></svg>